<?xml version="1.0" encoding="utf-8"?>
<svg viewBox="0 0 500 500" xmlns="http://www.w3.org/2000/svg">
  <path d="M 43.863 361.466 L 463.753 361.466 L 463.751 357.579 L 43.862 357.579 C 43.601 357.579 43.389 358.451 43.389 359.521 C 43.389 360.598 43.602 361.466 43.863 361.466 Z" fill="#3f3d56" style="" transform="matrix(0.999999, 0.001579, -0.001579, 0.999999, 0.568049, -0.399973)"/>
  <path d="M 193.476 368.613 C 196.422 382.656 213.218 365.396 213.218 365.396 L 233.254 363.056 C 233.254 363.056 245.923 363.349 254.176 369.785 C 262.426 376.219 268.023 367.735 268.023 367.735 C 277.318 370.812 288.707 370.8 298.57 369.815 C 312.781 368.395 324.172 357.506 326.127 343.456 C 337.144 264.213 276.569 225.272 276.569 225.272 L 258.889 177.879 C 258.889 177.879 264.488 164.131 266.256 151.845 C 268.023 139.558 255.059 127.857 239.147 116.156 C 232.186 111.036 224.21 111.405 217.439 113.437 C 209.843 115.719 203.218 120.411 198.322 126.61 C 194.266 131.748 187.309 139.023 179.661 140.284 C 177.017 140.716 174.405 141.758 171.967 143.653 C 169.444 145.613 168.329 148.884 168.294 152.95 C 168.107 170.713 182.88 192.098 195.833 195.432 C 211.745 199.529 203.199 238.435 203.199 238.435 C 177.269 274.709 195.538 315.079 195.538 315.079 L 190.823 347.843 C 190.823 347.843 190.53 354.572 193.476 368.613 Z" fill="#3f3d56" style="stroke-width: 1.46543; vector-effect: non-scaling-stroke;"/>
  <path d="M 280.105 293.139 L 273.623 373.294 C 273.623 373.294 282.462 395.526 252.406 394.357 C 222.352 393.187 240.031 347.551 240.031 347.551 L 249.46 287.874" fill="#3f3d56" style="stroke-width: 1.46543; vector-effect: non-scaling-stroke;"/>
  <path d="M 254.643 394.986 C 253.909 394.986 253.156 394.971 252.384 394.941 C 245.731 394.682 240.831 392.249 237.822 387.71 C 229.216 374.734 238.786 349.151 239.459 347.4 L 248.878 287.783 C 248.928 287.464 249.228 287.248 249.552 287.296 C 249.874 287.346 250.093 287.645 250.043 287.964 L 240.614 347.643 C 240.607 347.683 240.597 347.722 240.582 347.762 C 240.478 348.026 230.415 374.415 238.808 387.068 C 241.595 391.274 246.179 393.528 252.43 393.772 C 262.244 394.152 268.844 392.073 272.052 387.59 C 276.251 381.722 273.107 373.59 273.074 373.509 C 273.042 373.426 273.027 373.336 273.035 373.248 L 279.518 293.093 C 279.543 292.771 279.821 292.536 280.152 292.556 C 280.475 292.582 280.718 292.865 280.691 293.186 L 274.22 373.21 C 274.649 374.356 277.332 382.222 273.018 388.261 C 269.826 392.728 263.65 394.986 254.643 394.986 Z" fill="#2f2e41" style="stroke-width: 1.46543; vector-effect: non-scaling-stroke;"/>
  <path d="M 226.478 309.522 C 226.478 309.522 228.246 383.825 191.119 382.071 C 153.991 380.314 187.582 356.912 187.582 356.912 L 190.824 347.843" fill="#3f3d56" style="stroke-width: 1.46543; vector-effect: non-scaling-stroke;"/>
  <path d="M 192.393 382.685 C 191.963 382.685 191.529 382.675 191.091 382.656 C 180.49 382.153 174.499 379.795 173.289 375.646 C 171.106 368.17 185.334 357.79 187.09 356.541 L 190.269 347.649 C 190.378 347.343 190.714 347.183 191.02 347.292 C 191.327 347.401 191.487 347.734 191.38 348.039 L 188.138 357.108 C 188.098 357.222 188.021 357.323 187.92 357.39 C 187.766 357.499 172.377 368.324 174.421 375.322 C 175.478 378.937 181.104 381.011 191.146 381.486 C 197.835 381.804 203.698 379.573 208.561 374.856 C 226.801 357.18 225.899 310.01 225.887 309.535 C 225.88 309.213 226.138 308.945 226.463 308.937 C 226.771 308.937 227.059 309.186 227.067 309.508 C 227.112 311.464 227.993 357.658 209.386 375.694 C 204.595 380.338 198.884 382.685 192.393 382.685 Z" fill="#2f2e41" style="stroke-width: 1.46543; vector-effect: non-scaling-stroke;"/>
  <path d="M 168.294 152.95 C 172.526 153.454 179.149 153.431 184.636 149.798 C 190.511 145.906 184.412 142.278 179.661 140.284 C 177.017 140.716 174.405 141.758 171.967 143.653 C 169.444 145.613 168.329 148.884 168.294 152.95 Z" fill="#2f2e41" style="stroke-width: 1.46543; vector-effect: non-scaling-stroke;"/>
  <path d="M 236.672 142.431 C 236.672 142.431 226.389 116.209 241.116 115.843 C 255.844 115.476 267.478 138.199 267.478 138.199 C 267.478 138.199 304.444 205.097 253.797 201.489 C 203.151 197.882 227.353 171.176 227.353 171.176 C 227.353 171.176 238.905 157.077 236.672 142.431 Z" fill="#2f2e41" style="stroke-width: 1.46543; vector-effect: non-scaling-stroke;"/>
  <path d="M 293.093 338.374 C 299.614 341.256 306.429 344.196 313.563 343.914 C 320.695 343.632 328.203 339.072 329.314 332.071 C 329.886 328.456 328.748 324.58 330.143 321.193 C 332.019 316.636 338.067 314.879 342.769 316.44 C 347.47 318.002 350.925 322.029 353.403 326.292 C 358.036 334.272 359.892 344.743 354.924 352.521 C 350.617 359.262 342.449 362.31 334.849 364.924 C 324.728 368.404 313.427 371.859 303.62 367.583 C 293.756 363.284 288.383 350.859 292.035 340.797" fill="#3f3d56" style="stroke-width: 1.46543; vector-effect: non-scaling-stroke;"/>
  <path d="M 271.333 212.042 C 271.333 212.042 284.297 218.476 277.816 225.497 C 271.333 232.519 231.259 252.411 216.527 249.484 C 201.793 246.56 198.256 237.783 198.256 235.444 C 198.256 233.104 199.37 204.793 204.083 205.965 C 208.799 207.133 238.331 233.687 271.333 212.042 Z" fill="#ffffff" style="stroke-width: 1.46543; vector-effect: non-scaling-stroke;"/>
</svg>